<?xml version="1.0" encoding="utf-8"?>
<!DOCTYPE svg PUBLIC "-//W3C//DTD SVG 1.1//EN" "http://www.w3.org/Graphics/SVG/1.1/DTD/svg11.dtd">
<svg version="1.1" id="Layer_1" xmlns="http://www.w3.org/2000/svg" xmlns:xlink="http://www.w3.org/1999/xlink" x="0px" y="0px"
	 width="146px" height="72px" viewBox="0 0 146 72" enable-background="new 0 0 146 72" xml:space="preserve">
<g>
	<g>
		<g>
			<path fill="none" stroke="#83C4D0" stroke-width="19.5863" stroke-miterlimit="10" d="M58.877,16.534h47.869
				c12.32,0,22.401,10.08,22.401,22.401v0c0,12.32-10.08,22.401-22.401,22.401h-67.81c-12.32,0-22.401-10.08-22.401-22.401v0
				c0-12.32,10.932-22.401,23.252-22.401"/>
			<g>
				<polygon fill="#83C4D0" points="60.951,1.068 60.951,32 45.489,16.534 				"/>
			</g>
		</g>
	</g>
	<g>
		<path fill="#FFFFFF" d="M59.194,58.72h0.748v2.566h0.017c0.119-0.212,0.306-0.399,0.536-0.526
			c0.221-0.128,0.484-0.213,0.765-0.213c0.553,0,1.437,0.34,1.437,1.76v2.447h-0.748v-2.362c0-0.663-0.246-1.225-0.952-1.225
			c-0.484,0-0.867,0.34-1.003,0.748c-0.042,0.103-0.051,0.213-0.051,0.357v2.481h-0.748V58.72z"/>
		<path fill="#FFFFFF" d="M64.408,62.833c0.017,1.012,0.663,1.428,1.411,1.428c0.536,0,0.858-0.094,1.139-0.212l0.128,0.535
			c-0.264,0.119-0.714,0.255-1.369,0.255c-1.266,0-2.023-0.833-2.023-2.074c0-1.24,0.731-2.218,1.93-2.218
			c1.343,0,1.7,1.182,1.7,1.938c0,0.153-0.017,0.272-0.025,0.349H64.408z M66.601,62.298c0.009-0.477-0.195-1.216-1.037-1.216
			c-0.756,0-1.088,0.697-1.147,1.216H66.601z"/>
		<path fill="#FFFFFF" d="M70.609,64.754l-0.06-0.519h-0.026c-0.229,0.323-0.671,0.612-1.258,0.612
			c-0.833,0-1.258-0.587-1.258-1.182c0-0.994,0.884-1.538,2.473-1.53v-0.085c0-0.34-0.093-0.951-0.935-0.951
			c-0.383,0-0.782,0.119-1.071,0.306l-0.17-0.493c0.34-0.221,0.833-0.365,1.352-0.365c1.258,0,1.564,0.858,1.564,1.683v1.538
			c0,0.357,0.017,0.706,0.068,0.986H70.609z M70.498,62.654c-0.816-0.017-1.742,0.128-1.742,0.927c0,0.484,0.323,0.714,0.706,0.714
			c0.535,0,0.875-0.34,0.994-0.688c0.025-0.076,0.042-0.161,0.042-0.238V62.654z"/>
		<path fill="#FFFFFF" d="M72.509,58.72h0.748v6.034h-0.748V58.72z"/>
		<path fill="#FFFFFF" d="M75.499,59.459v1.182h1.07v0.569h-1.07v2.218c0,0.51,0.145,0.799,0.561,0.799
			c0.195,0,0.34-0.025,0.434-0.051l0.034,0.562c-0.145,0.06-0.374,0.102-0.663,0.102c-0.349,0-0.629-0.11-0.808-0.314
			c-0.212-0.221-0.289-0.587-0.289-1.071V61.21h-0.637v-0.569h0.637v-0.986L75.499,59.459z"/>
		<path fill="#FFFFFF" d="M77.493,58.72h0.748v2.566h0.018c0.118-0.212,0.306-0.399,0.535-0.526
			c0.221-0.128,0.484-0.213,0.765-0.213c0.553,0,1.437,0.34,1.437,1.76v2.447h-0.748v-2.362c0-0.663-0.246-1.225-0.952-1.225
			c-0.484,0-0.866,0.34-1.003,0.748c-0.042,0.103-0.051,0.213-0.051,0.357v2.481h-0.748V58.72z"/>
	</g>
	<g>
		<path fill="#FFFFFF" d="M71.966,13.04h0.748v2.566h0.017c0.119-0.212,0.306-0.399,0.536-0.527
			c0.221-0.127,0.484-0.212,0.765-0.212c0.553,0,1.437,0.34,1.437,1.759v2.448H74.72v-2.363c0-0.663-0.246-1.224-0.952-1.224
			c-0.484,0-0.867,0.34-1.003,0.748c-0.042,0.102-0.051,0.212-0.051,0.357v2.482h-0.748V13.04z"/>
		<path fill="#FFFFFF" d="M77.181,17.153c0.017,1.012,0.663,1.428,1.411,1.428c0.535,0,0.858-0.093,1.139-0.212l0.127,0.536
			c-0.264,0.119-0.714,0.255-1.368,0.255c-1.267,0-2.022-0.833-2.022-2.074s0.73-2.218,1.929-2.218c1.343,0,1.7,1.181,1.7,1.938
			c0,0.153-0.017,0.272-0.025,0.348H77.181z M79.373,16.618c0.009-0.476-0.195-1.216-1.037-1.216c-0.756,0-1.088,0.697-1.147,1.216
			H79.373z"/>
		<path fill="#FFFFFF" d="M83.381,19.074l-0.06-0.519h-0.025c-0.229,0.323-0.672,0.612-1.258,0.612
			c-0.833,0-1.258-0.586-1.258-1.181c0-0.995,0.884-1.539,2.473-1.53v-0.085c0-0.34-0.094-0.952-0.935-0.952
			c-0.383,0-0.782,0.119-1.071,0.306l-0.17-0.493c0.34-0.221,0.833-0.365,1.352-0.365c1.258,0,1.563,0.858,1.563,1.683v1.539
			c0,0.357,0.018,0.706,0.068,0.986H83.381z M83.271,16.975c-0.816-0.017-1.743,0.127-1.743,0.926c0,0.484,0.323,0.714,0.706,0.714
			c0.535,0,0.875-0.34,0.994-0.688c0.025-0.076,0.043-0.162,0.043-0.238V16.975z"/>
		<path fill="#FFFFFF" d="M85.281,13.04h0.748v6.034h-0.748V13.04z"/>
		<path fill="#FFFFFF" d="M88.271,13.779v1.181h1.07v0.57h-1.07v2.218c0,0.51,0.145,0.799,0.561,0.799
			c0.195,0,0.34-0.025,0.434-0.051l0.034,0.561c-0.145,0.06-0.374,0.102-0.663,0.102c-0.349,0-0.629-0.11-0.808-0.314
			c-0.212-0.221-0.289-0.586-0.289-1.071V15.53h-0.637v-0.57h0.637v-0.986L88.271,13.779z"/>
		<path fill="#FFFFFF" d="M90.266,13.04h0.748v2.566h0.018c0.118-0.212,0.306-0.399,0.535-0.527
			c0.221-0.127,0.484-0.212,0.765-0.212c0.553,0,1.437,0.34,1.437,1.759v2.448H93.02v-2.363c0-0.663-0.246-1.224-0.952-1.224
			c-0.484,0-0.866,0.34-1.003,0.748c-0.042,0.102-0.051,0.212-0.051,0.357v2.482h-0.748V13.04z"/>
	</g>
	<g>
	</g>
</g>
</svg>
