<?xml version="1.0" encoding="utf-8"?>
<!-- Generator: Adobe Illustrator 17.0.0, SVG Export Plug-In . SVG Version: 6.00 Build 0)  -->
<!DOCTYPE svg PUBLIC "-//W3C//DTD SVG 1.1//EN" "http://www.w3.org/Graphics/SVG/1.1/DTD/svg11.dtd">
<svg version="1.1" id="Layer_1" xmlns="http://www.w3.org/2000/svg" xmlns:xlink="http://www.w3.org/1999/xlink" x="0px" y="0px"
	 width="50px" height="50px" viewBox="0 0 50 50" enable-background="new 0 0 50 50" xml:space="preserve">
<g>
	<path fill="#F15C27" d="M26.258,1.899L49.687,42.48c0.393,0.709,0.137,1.602-0.571,1.995c-0.21,0.117-0.446,0.18-0.687,0.184H1.571
		c-0.81-0.014-1.456-0.682-1.442-1.492c0.004-0.241,0.067-0.477,0.184-0.687L23.738,1.899c0.415-0.696,1.316-0.923,2.012-0.508
		C25.959,1.515,26.133,1.69,26.258,1.899z"/>
	<path fill="#FFFFFF" d="M25,12.17c0.089-0.002,0.168,0.055,0.194,0.139l1.585,5.007v5.323l11.126,8.18v2.993l-6.97-4.119h-4.156
		l-1.056,7.054l4.017,1.779v1.775l-4.769-1.148l-4.71,1.148v-1.775l4.017-1.779l-1.056-7.028h-4.16l-6.966,4.094v-2.993l11.126-8.18
		v-5.304l1.588-5.007c0.026-0.085,0.106-0.142,0.194-0.139 M25.004,11.088c-0.569-0.002-1.073,0.367-1.244,0.91l-1.588,5.007
		l-0.051,0.334v4.736l-10.678,7.857l-0.448,0.888v2.993l1.662,0.946l6.706-3.965h2.909l0.792,5.26l-3.25,1.438l-0.657,1.005v1.775
		l1.361,1.067l4.453-1.1l4.505,1.1l1.357-1.071v-1.775l-0.657-1.005l-3.25-1.438l0.792-5.26h2.913l6.717,3.987l1.658-0.965v-2.993
		l-0.448-0.888l-10.678-7.857v-4.739l-0.051-0.334l-1.585-5.007c-0.165-0.549-0.67-0.924-1.244-0.924l0,0L25.004,11.088z"/>
</g>
<g>
</g>
<g>
</g>
<g>
</g>
<g>
</g>
<g>
</g>
<g>
</g>
</svg>
