<?xml version="1.0" encoding="utf-8"?>
<!-- Generator: Adobe Illustrator 17.0.0, SVG Export Plug-In . SVG Version: 6.00 Build 0)  -->
<!DOCTYPE svg PUBLIC "-//W3C//DTD SVG 1.1//EN" "http://www.w3.org/Graphics/SVG/1.1/DTD/svg11.dtd">
<svg version="1.1" id="Layer_1" xmlns="http://www.w3.org/2000/svg" xmlns:xlink="http://www.w3.org/1999/xlink" x="0px" y="0px"
	 width="65px" height="65px" viewBox="0 0 65 65" enable-background="new 0 0 65 65" xml:space="preserve">
<symbol  id="ok" viewBox="-11.202 -11.202 22.404 22.404">
	<path fill="#F15C27" d="M11.202,0c0-6.187-5.015-11.202-11.202-11.202S-11.202-6.187-11.202,0S-6.187,11.202,0,11.202
		S11.202,6.187,11.202,0z"/>
</symbol>
<symbol  id="warning" viewBox="-11.547 -11.547 23.094 23.094">
	<path fill="#C7BC32" stroke="#FFFFFF" stroke-miterlimit="10" d="M11.047,0c0-6.101-4.946-11.047-11.047-11.047
		S-11.047-6.101-11.047,0S-6.101,11.047,0,11.047S11.047,6.101,11.047,0z"/>
	<g>
		
			<line fill="none" stroke="#FFFFFF" stroke-width="2" stroke-linecap="round" stroke-linejoin="round" stroke-miterlimit="10" x1="0" y1="7.266" x2="-0.085" y2="-1.641"/>
		<path fill="none" stroke="#FFFFFF" stroke-width="2" stroke-linecap="round" stroke-linejoin="round" stroke-miterlimit="10" d="
			M0.562-6.032c0-0.357-0.29-0.647-0.647-0.647s-0.647,0.29-0.647,0.647s0.29,0.647,0.647,0.647S0.562-5.674,0.562-6.032z"/>
	</g>
</symbol>
<g id="XMLID_371_">
	<g>
		<g>
			<path fill="none" d="M52.491,50.516c-8.456,10.768-24.096,12.648-34.863,4.192C6.86,46.252,4.98,30.612,13.436,19.844
				s24.096-12.648,34.863-4.192C59.067,24.109,60.947,39.749,52.491,50.516z"/>
			<path fill="#010101" d="M8.547,29.522c0.081,0.251,0.128,0.736,0.038,1.335c-0.209,1.388-1.243,2.3-2.858,2.057
				c-1.54-0.232-2.427-1.433-2.198-2.96c0.092-0.614,0.282-0.98,0.396-1.135l0.495,0.231c-0.152,0.224-0.292,0.554-0.354,0.963
				c-0.174,1.154,0.449,2.032,1.741,2.227c1.205,0.181,2.084-0.396,2.265-1.594c0.058-0.387,0.037-0.793-0.049-1.067L8.547,29.522z"
				/>
			<path fill="#010101" d="M8.096,25.433c1.261,0.399,1.534,1.446,1.272,2.27c-0.291,0.922-1.192,1.418-2.27,1.078
				c-1.14-0.361-1.572-1.319-1.273-2.262C6.135,25.54,7.055,25.103,8.096,25.433z M7.277,28.146c0.746,0.237,1.445-0.015,1.637-0.62
				c0.188-0.591-0.229-1.211-0.995-1.454c-0.578-0.183-1.401-0.126-1.633,0.606C6.054,27.411,6.629,27.942,7.277,28.146z"/>
			<path fill="#010101" d="M7.758,24.216c-0.33-0.165-0.604-0.293-0.878-0.406l0.258-0.515l0.544,0.231l0.007-0.013
				c-0.226-0.311-0.336-0.829-0.071-1.357c0.22-0.442,0.828-0.997,1.925-0.448l1.907,0.954l-0.29,0.581l-1.843-0.921
				c-0.516-0.258-1.039-0.281-1.313,0.268c-0.191,0.383-0.07,0.815,0.204,1.076c0.06,0.063,0.152,0.125,0.251,0.175l1.921,0.961
				l-0.291,0.581L7.758,24.216z"/>
			<path fill="#010101" d="M8.546,18.727l0.854,0.571l0.517-0.774l0.412,0.275l-0.518,0.773l1.604,1.072
				c0.369,0.247,0.648,0.282,0.849-0.02c0.096-0.141,0.147-0.257,0.174-0.337l0.421,0.246c-0.026,0.133-0.107,0.32-0.246,0.529
				c-0.168,0.252-0.384,0.401-0.617,0.432c-0.263,0.046-0.563-0.075-0.914-0.309l-1.623-1.085l-0.308,0.461l-0.412-0.275
				l0.309-0.461L8.334,19.35L8.546,18.727z"/>
			<path fill="#010101" d="M14.523,18.516l-0.377-0.251l-0.015,0.017c0.085,0.334,0.027,0.79-0.302,1.179
				c-0.469,0.552-1.096,0.505-1.49,0.17c-0.66-0.559-0.524-1.452,0.374-2.501l-0.056-0.047c-0.226-0.191-0.684-0.473-1.156,0.085
				c-0.217,0.253-0.362,0.585-0.399,0.883l-0.424-0.165c0.045-0.35,0.227-0.758,0.519-1.102c0.707-0.834,1.448-0.555,1.995-0.092
				l1.021,0.865c0.237,0.201,0.478,0.385,0.691,0.509L14.523,18.516z M13.067,17.409c-0.47,0.532-0.895,1.228-0.364,1.676
				c0.322,0.272,0.655,0.188,0.871-0.066c0.3-0.355,0.266-0.772,0.102-1.046c-0.036-0.06-0.083-0.119-0.134-0.162L13.067,17.409z"/>
			<path fill="#010101" d="M12.885,13.673c0.158,0.154,0.165,0.395-0.021,0.574c-0.165,0.159-0.404,0.143-0.558-0.016
				c-0.159-0.165-0.16-0.411,0.011-0.574C12.493,13.487,12.727,13.508,12.885,13.673z M15.536,17.471l-2.476-2.574l0.468-0.451
				l2.477,2.575L15.536,17.471z"/>
			<path fill="#010101" d="M15.099,14.277c-0.224-0.293-0.414-0.53-0.611-0.751l0.458-0.351l0.39,0.448l0.012-0.009
				c-0.066-0.378,0.061-0.894,0.53-1.253c0.394-0.3,1.184-0.532,1.929,0.442l1.297,1.698l-0.516,0.395l-1.253-1.639
				c-0.351-0.458-0.813-0.709-1.3-0.337c-0.34,0.261-0.42,0.703-0.289,1.059c0.025,0.083,0.082,0.179,0.148,0.268l1.307,1.708
				l-0.518,0.396L15.099,14.277z"/>
			<path fill="#010101" d="M19.373,12.395c0.436,0.763,1.101,0.811,1.671,0.499c0.409-0.224,0.615-0.43,0.779-0.637l0.32,0.354
				c-0.15,0.201-0.438,0.493-0.936,0.766c-0.964,0.529-1.889,0.21-2.407-0.735c-0.518-0.945-0.37-1.995,0.544-2.496
				c1.022-0.561,1.788,0.19,2.104,0.766c0.063,0.116,0.101,0.215,0.126,0.276L19.373,12.395z M20.82,11.071
				c-0.192-0.366-0.657-0.844-1.298-0.493c-0.576,0.316-0.538,0.985-0.366,1.405L20.82,11.071z"/>
			<path fill="#010101" d="M22.083,10.13c-0.157-0.391-0.301-0.724-0.445-1.023l0.527-0.213l0.283,0.643l0.027-0.011
				c-0.028-0.506,0.221-0.934,0.624-1.097c0.069-0.028,0.12-0.04,0.181-0.049l0.229,0.569c-0.066,0.011-0.131,0.029-0.213,0.063
				c-0.424,0.172-0.597,0.615-0.496,1.101c0.021,0.088,0.045,0.189,0.086,0.292L23.6,12.17l-0.596,0.241L22.083,10.13z"/>
			<path fill="#010101" d="M26.036,6.18l1.203,4.829l-0.622,0.156l-1.204-4.829L26.036,6.18z"/>
			<path fill="#010101" d="M27.622,5.858c0.383-0.104,0.839-0.203,1.345-0.262c0.917-0.107,1.594,0.028,2.074,0.381
				c0.485,0.351,0.81,0.893,0.903,1.691c0.094,0.807-0.077,1.496-0.485,2.004c-0.408,0.516-1.142,0.854-2.102,0.967
				c-0.454,0.054-0.838,0.076-1.164,0.078L27.622,5.858z M28.773,10.152c0.164,0.01,0.399-0.01,0.648-0.039
				c1.363-0.16,2.014-1.009,1.857-2.344c-0.128-1.166-0.875-1.829-2.224-1.67c-0.33,0.039-0.576,0.097-0.74,0.153L28.773,10.152z"/>
		</g>
		<g>
			<g>
				
					<use xlink:href="#ok"  width="22.404" height="22.404" id="XMLID_18_" x="-11.202" y="-11.202" transform="matrix(1.9206 0 0 -1.9206 32.8582 34.672)" overflow="visible"/>
			</g>
		</g>
		<g>
			<path fill="#FFFFFF" d="M19.04,35.528c-0.045-0.847-0.1-1.863-0.09-2.62h-0.027c-0.207,0.711-0.459,1.467-0.766,2.304
				l-1.071,2.944h-0.594l-0.981-2.89c-0.288-0.855-0.531-1.639-0.702-2.359h-0.018c-0.019,0.756-0.063,1.773-0.117,2.683
				l-0.162,2.602h-0.747l0.423-6.068h0.999l1.035,2.935c0.253,0.747,0.46,1.413,0.612,2.043h0.027
				c0.153-0.612,0.369-1.278,0.639-2.043l1.081-2.935h0.999l0.378,6.068h-0.765L19.04,35.528z"/>
			<path fill="#FFFFFF" d="M25.132,35.979c0,1.611-1.116,2.313-2.17,2.313c-1.18,0-2.089-0.864-2.089-2.241
				c0-1.459,0.954-2.314,2.161-2.314C24.286,33.736,25.132,34.646,25.132,35.979z M21.675,36.023c0,0.954,0.549,1.675,1.323,1.675
				c0.756,0,1.323-0.712,1.323-1.692c0-0.738-0.369-1.675-1.306-1.675C22.081,34.331,21.675,35.195,21.675,36.023z"/>
			<path fill="#FFFFFF" d="M26.129,35.016c0-0.45-0.009-0.819-0.036-1.18h0.702l0.045,0.72h0.019c0.216-0.414,0.72-0.819,1.44-0.819
				c0.603,0,1.539,0.36,1.539,1.855v2.602h-0.792v-2.512c0-0.702-0.262-1.288-1.009-1.288c-0.521,0-0.927,0.369-1.062,0.811
				c-0.036,0.1-0.055,0.234-0.055,0.369v2.62h-0.792V35.016z"/>
			<path fill="#FFFFFF" d="M34.879,33.836c-0.018,0.315-0.036,0.666-0.036,1.197v2.529c0,1-0.198,1.612-0.621,1.99
				c-0.423,0.396-1.035,0.521-1.584,0.521c-0.522,0-1.099-0.126-1.45-0.359l0.198-0.604c0.288,0.18,0.738,0.342,1.278,0.342
				c0.811,0,1.405-0.423,1.405-1.521v-0.485h-0.018c-0.243,0.404-0.711,0.729-1.387,0.729c-1.08,0-1.854-0.918-1.854-2.124
				c0-1.477,0.964-2.314,1.963-2.314c0.756,0,1.17,0.396,1.36,0.757h0.018l0.036-0.657H34.879z M34.06,35.556
				c0-0.136-0.009-0.252-0.045-0.36c-0.144-0.459-0.531-0.837-1.108-0.837c-0.756,0-1.296,0.639-1.296,1.647
				c0,0.854,0.432,1.566,1.287,1.566c0.487,0,0.928-0.307,1.099-0.811c0.045-0.135,0.063-0.288,0.063-0.423V35.556z"/>
			<path fill="#FFFFFF" d="M40.1,35.979c0,1.611-1.116,2.313-2.17,2.313c-1.18,0-2.089-0.864-2.089-2.241
				c0-1.459,0.954-2.314,2.161-2.314C39.253,33.736,40.1,34.646,40.1,35.979z M36.643,36.023c0,0.954,0.549,1.675,1.323,1.675
				c0.756,0,1.323-0.712,1.323-1.692c0-0.738-0.369-1.675-1.306-1.675C37.048,34.331,36.643,35.195,36.643,36.023z"/>
			<path fill="#FFFFFF" d="M43.032,32.207c0.477-0.072,1.044-0.126,1.665-0.126c1.125,0,1.927,0.261,2.458,0.756
				c0.54,0.495,0.855,1.197,0.855,2.179c0,0.99-0.307,1.8-0.874,2.358c-0.566,0.567-1.503,0.873-2.683,0.873
				c-0.558,0-1.026-0.027-1.422-0.072V32.207z M43.815,37.572c0.197,0.036,0.485,0.045,0.792,0.045c1.675,0,2.584-0.937,2.584-2.575
				c0.009-1.432-0.802-2.34-2.458-2.34c-0.405,0-0.711,0.036-0.918,0.081V37.572z"/>
			<path fill="#FFFFFF" d="M49.026,32.207c0.342-0.072,0.882-0.126,1.431-0.126c0.783,0,1.288,0.135,1.666,0.441
				c0.315,0.234,0.504,0.594,0.504,1.071c0,0.585-0.387,1.099-1.026,1.332v0.019c0.576,0.144,1.252,0.621,1.252,1.521
				c0,0.521-0.207,0.918-0.514,1.215c-0.423,0.388-1.107,0.567-2.098,0.567c-0.54,0-0.954-0.036-1.215-0.072V32.207z M49.81,34.691
				h0.711c0.828,0,1.314-0.433,1.314-1.018c0-0.711-0.54-0.99-1.333-0.99c-0.359,0-0.566,0.027-0.692,0.054V34.691z M49.81,37.599
				c0.152,0.027,0.378,0.036,0.657,0.036c0.81,0,1.557-0.297,1.557-1.179c0-0.829-0.711-1.171-1.566-1.171H49.81V37.599z"/>
		</g>
	</g>
</g>
<use xlink:href="#warning"  width="23.094" height="23.094" id="XMLID_195_" x="-11.547" y="-11.547" transform="matrix(1 0 0 -1 46.1506 15.5062)" overflow="visible"/>
<g>
</g>
<g>
</g>
<g>
</g>
<g>
</g>
<g>
</g>
<g>
</g>
<g>
</g>
<g>
</g>
<g>
</g>
<g>
</g>
<g>
</g>
<g>
</g>
</svg>
