<?xml version="1.0" encoding="utf-8"?>
<!-- Generator: Adobe Illustrator 17.0.0, SVG Export Plug-In . SVG Version: 6.00 Build 0)  -->
<!DOCTYPE svg PUBLIC "-//W3C//DTD SVG 1.1//EN" "http://www.w3.org/Graphics/SVG/1.1/DTD/svg11.dtd">
<svg version="1.1" id="Layer_1" xmlns="http://www.w3.org/2000/svg" xmlns:xlink="http://www.w3.org/1999/xlink" x="0px" y="0px"
	 width="50px" height="50px" viewBox="0 0 50 50" enable-background="new 0 0 50 50" xml:space="preserve">
<symbol  id="ok" viewBox="-11.202 -11.202 22.404 22.404">
	<g>
		<path fill="#83C4D0" d="M11.202,0c0-6.187-5.015-11.202-11.202-11.202S-11.202-6.187-11.202,0S-6.187,11.202,0,11.202
			S11.202,6.187,11.202,0z"/>
	</g>
</symbol>
<symbol  id="ok_2" viewBox="-11.702 -11.702 23.404 23.404">
	<path fill="#48BD9C" stroke="#FFFFFF" stroke-miterlimit="10" d="M11.202,0c0-6.187-5.015-11.202-11.202-11.202
		S-11.202-6.187-11.202,0S-6.187,11.202,0,11.202S11.202,6.187,11.202,0z"/>
	
		<polyline fill="none" stroke="#FFFFFF" stroke-width="2" stroke-linecap="round" stroke-linejoin="round" stroke-miterlimit="10" points="
		-5.408,0 0,-6.215 5.235,5.547 	"/>
</symbol>
<g id="XMLID_580_">
	<g>
		<g id="MySQL_x5F_cont_64_">
			<g>
				<path fill="none" d="M39.77,40.578c-6.618,8.426-18.857,9.898-27.283,3.28c-8.426-6.618-9.898-18.857-3.28-27.283
					s18.857-9.898,27.283-3.28C44.916,19.913,46.388,32.152,39.77,40.578z"/>
				<path fill="#010101" d="M5.372,24.146c0.063,0.196,0.101,0.575,0.03,1.043c-0.163,1.084-0.971,1.798-2.233,1.61
					c-1.204-0.181-1.898-1.12-1.719-2.314c0.072-0.479,0.219-0.767,0.308-0.888l0.388,0.181c-0.12,0.175-0.229,0.433-0.277,0.752
					c-0.134,0.902,0.352,1.589,1.363,1.74c0.942,0.142,1.63-0.31,1.769-1.247c0.047-0.302,0.029-0.621-0.037-0.834L5.372,24.146z"/>
				<path fill="#010101" d="M5.023,20.939c0.986,0.313,1.2,1.133,0.996,1.778c-0.229,0.722-0.937,1.112-1.779,0.844
					c-0.894-0.284-1.232-1.034-0.998-1.773C3.486,21.021,4.207,20.68,5.023,20.939z M4.379,23.064
					c0.584,0.186,1.133-0.011,1.284-0.485c0.146-0.463-0.18-0.949-0.78-1.14c-0.452-0.144-1.097-0.099-1.28,0.474
					C3.421,22.488,3.872,22.904,4.379,23.064z"/>
				<path fill="#010101" d="M4.747,20.021c-0.259-0.129-0.473-0.23-0.688-0.318L4.261,19.3l0.427,0.181l0.005-0.011
					c-0.176-0.243-0.264-0.648-0.057-1.062c0.174-0.347,0.647-0.781,1.507-0.352l1.493,0.747l-0.227,0.455l-1.443-0.721
					c-0.402-0.202-0.813-0.219-1.028,0.209c-0.149,0.3-0.054,0.638,0.16,0.843c0.048,0.049,0.12,0.098,0.197,0.137l1.504,0.752
					l-0.228,0.455L4.747,20.021z"/>
				<path fill="#010101" d="M5.356,15.721l0.669,0.447l0.404-0.605l0.323,0.215l-0.405,0.605l1.255,0.839
					c0.289,0.193,0.507,0.221,0.664-0.015c0.073-0.111,0.115-0.202,0.136-0.265l0.33,0.193c-0.021,0.104-0.084,0.25-0.193,0.414
					c-0.132,0.197-0.301,0.314-0.482,0.338c-0.206,0.036-0.442-0.058-0.716-0.242l-1.27-0.849L5.83,17.158l-0.323-0.215l0.242-0.361
					L5.19,16.209L5.356,15.721z"/>
				<path fill="#010101" d="M10.033,15.555l-0.296-0.197l-0.012,0.013c0.067,0.261,0.022,0.618-0.235,0.922
					c-0.365,0.433-0.858,0.396-1.167,0.134c-0.517-0.438-0.41-1.136,0.293-1.958l-0.043-0.038c-0.178-0.149-0.536-0.37-0.907,0.067
					c-0.168,0.198-0.281,0.459-0.312,0.69l-0.331-0.127c0.034-0.275,0.177-0.594,0.405-0.863c0.553-0.654,1.134-0.435,1.563-0.072
					l0.798,0.676c0.187,0.158,0.375,0.302,0.543,0.399L10.033,15.555z M8.894,14.688c-0.368,0.417-0.701,0.962-0.285,1.313
					c0.251,0.213,0.512,0.146,0.681-0.053c0.235-0.278,0.209-0.604,0.08-0.82c-0.028-0.046-0.064-0.093-0.104-0.127L8.894,14.688z"
					/>
				<path fill="#010101" d="M8.744,11.764c0.125,0.121,0.128,0.309-0.017,0.449c-0.128,0.125-0.316,0.112-0.437-0.012
					c-0.124-0.129-0.125-0.321,0.008-0.45C8.437,11.619,8.619,11.634,8.744,11.764z M10.823,14.735l-1.941-2.013l0.366-0.353
					l1.94,2.013L10.823,14.735z"/>
				<path fill="#010101" d="M10.451,12.26c-0.177-0.229-0.326-0.413-0.48-0.585l0.356-0.275l0.306,0.348l0.009-0.007
					c-0.053-0.295,0.046-0.698,0.411-0.98c0.307-0.236,0.924-0.42,1.509,0.339l1.021,1.322l-0.403,0.311l-0.984-1.276
					c-0.275-0.356-0.637-0.552-1.018-0.259c-0.265,0.205-0.326,0.551-0.222,0.828c0.021,0.064,0.064,0.14,0.117,0.208l1.026,1.332
					l-0.403,0.311L10.451,12.26z"/>
				<path fill="#010101" d="M13.793,10.771c0.342,0.596,0.863,0.633,1.311,0.387c0.318-0.176,0.48-0.338,0.608-0.501l0.252,0.278
					c-0.118,0.157-0.342,0.386-0.732,0.601c-0.755,0.416-1.479,0.168-1.887-0.571c-0.407-0.739-0.293-1.563,0.422-1.956
					c0.8-0.442,1.4,0.145,1.648,0.596c0.051,0.091,0.079,0.167,0.1,0.216L13.793,10.771z M14.924,9.731
					c-0.151-0.287-0.517-0.66-1.018-0.384c-0.451,0.249-0.419,0.773-0.285,1.101L14.924,9.731z"/>
				<path fill="#010101" d="M15.906,8.996c-0.126-0.305-0.237-0.564-0.352-0.797l0.412-0.168l0.223,0.501l0.021-0.009
					c-0.024-0.395,0.169-0.729,0.484-0.859c0.054-0.022,0.094-0.032,0.14-0.039l0.183,0.444c-0.053,0.009-0.104,0.023-0.167,0.049
					c-0.332,0.136-0.465,0.483-0.385,0.862c0.016,0.068,0.035,0.147,0.068,0.228l0.565,1.379l-0.466,0.19L15.906,8.996z"/>
				<path fill="#010101" d="M18.986,5.894l0.959,3.773l-0.487,0.125l-0.959-3.774L18.986,5.894z"/>
				<path fill="#010101" d="M20.197,5.646c0.299-0.083,0.655-0.161,1.051-0.209c0.716-0.088,1.246,0.016,1.622,0.29
					c0.384,0.273,0.638,0.695,0.714,1.32c0.078,0.63-0.054,1.17-0.372,1.569c-0.317,0.405-0.89,0.673-1.64,0.764
					c-0.355,0.044-0.656,0.063-0.91,0.065L20.197,5.646z M21.113,9c0.129,0.008,0.313-0.009,0.508-0.033
					c1.065-0.13,1.571-0.797,1.444-1.839c-0.106-0.912-0.692-1.428-1.747-1.299c-0.257,0.031-0.45,0.079-0.578,0.123L21.113,9z"/>
			</g>
			<g>
				
					<use xlink:href="#ok"  width="22.404" height="22.404" id="XMLID_589_" x="-11.202" y="-11.202" transform="matrix(1.503 0 0 -1.503 24.4066 28.1793)" overflow="visible"/>
			</g>
			<g>
				<path fill="#FFFFFF" d="M19.504,30.935v-4.751h0.669l1.523,2.403c0.353,0.558,0.627,1.058,0.853,1.544l0.015-0.007
					c-0.057-0.635-0.071-1.213-0.071-1.953v-1.987h0.578v4.751h-0.62l-1.509-2.411c-0.331-0.528-0.648-1.071-0.888-1.586
					l-0.021,0.007c0.035,0.6,0.05,1.171,0.05,1.96v2.03H19.504z"/>
				<path fill="#FFFFFF" d="M24.251,30.935v-2.939h-0.479v-0.473h0.479V27.36c0-0.479,0.105-0.916,0.395-1.191
					c0.232-0.226,0.543-0.317,0.832-0.317c0.219,0,0.409,0.049,0.528,0.099l-0.084,0.479c-0.092-0.042-0.219-0.077-0.395-0.077
					c-0.529,0-0.663,0.465-0.663,0.987v0.183h0.825v0.473h-0.825v2.939H24.251z"/>
				<path fill="#FFFFFF" d="M26.096,30.301c0.184,0.119,0.508,0.246,0.818,0.246c0.451,0,0.662-0.226,0.662-0.508
					c0-0.296-0.176-0.458-0.634-0.627c-0.613-0.219-0.902-0.557-0.902-0.966c0-0.55,0.443-1.001,1.177-1.001
					c0.346,0,0.648,0.099,0.839,0.212L27.9,28.108c-0.134-0.085-0.38-0.198-0.697-0.198c-0.367,0-0.571,0.212-0.571,0.466
					c0,0.282,0.204,0.409,0.648,0.578c0.592,0.226,0.896,0.521,0.896,1.029c0,0.599-0.466,1.021-1.276,1.021
					c-0.373,0-0.719-0.091-0.958-0.232L26.096,30.301z"/>
			</g>
		</g>
		
			<use xlink:href="#ok_2"  width="23.404" height="23.404" id="XMLID_587_" x="-11.702" y="-11.702" transform="matrix(0.7826 0 0 -0.7826 38.1917 12.1573)" overflow="visible"/>
	</g>
</g>
<g>
</g>
<g>
</g>
<g>
</g>
<g>
</g>
<g>
</g>
<g>
</g>
<g>
</g>
<g>
</g>
<g>
</g>
<g>
</g>
<g>
</g>
<g>
</g>
</svg>
