<?xml version="1.0" encoding="utf-8"?>
<!-- Generator: Adobe Illustrator 17.0.0, SVG Export Plug-In . SVG Version: 6.00 Build 0)  -->
<!DOCTYPE svg PUBLIC "-//W3C//DTD SVG 1.1//EN" "http://www.w3.org/Graphics/SVG/1.1/DTD/svg11.dtd">
<svg version="1.1" id="Layer_1" xmlns="http://www.w3.org/2000/svg" xmlns:xlink="http://www.w3.org/1999/xlink" x="0px" y="0px"
	 width="65px" height="65px" viewBox="0 0 65 65" enable-background="new 0 0 65 65" xml:space="preserve">
<symbol  id="broken" viewBox="-11.245 -11.245 22.491 22.491">
	<path fill="#625FAA" d="M11.245,0C11.245-6.21,6.211-11.245,0-11.245S-11.245-6.21-11.245,0S-6.211,11.246,0,11.246
		S11.245,6.211,11.245,0z"/>
</symbol>
<symbol  id="ok_2" viewBox="-11.702 -11.702 23.404 23.404">
	<path fill="#48BD9C" stroke="#FFFFFF" stroke-miterlimit="10" d="M11.202,0c0-6.187-5.015-11.202-11.202-11.202
		S-11.202-6.187-11.202,0S-6.187,11.202,0,11.202S11.202,6.187,11.202,0z"/>
	
		<polyline fill="none" stroke="#FFFFFF" stroke-width="2" stroke-linecap="round" stroke-linejoin="round" stroke-miterlimit="10" points="
		-5.408,0 0,-6.215 5.235,5.547 	"/>
</symbol>
<g id="XMLID_212_">
	<g>
		<g id="MySQL_x5F_cont_66_">
			<g>
				<path fill="none" d="M50.936,52.516C42.48,63.284,26.84,65.164,16.072,56.708C5.305,48.252,3.425,32.612,11.881,21.844
					s24.096-12.648,34.863-4.192C57.512,26.109,59.392,41.749,50.936,52.516z"/>
				<path fill="#010101" d="M6.993,31.522c0.081,0.251,0.128,0.736,0.038,1.335c-0.209,1.388-1.243,2.3-2.858,2.057
					c-1.54-0.232-2.427-1.434-2.198-2.96c0.092-0.614,0.282-0.98,0.396-1.135l0.495,0.231c-0.152,0.224-0.292,0.554-0.354,0.963
					c-0.174,1.153,0.449,2.032,1.741,2.227c1.205,0.181,2.084-0.396,2.265-1.594c0.058-0.387,0.037-0.793-0.049-1.067L6.993,31.522z
					"/>
				<path fill="#010101" d="M6.542,27.433c1.261,0.399,1.534,1.446,1.272,2.27c-0.291,0.922-1.192,1.418-2.27,1.078
					c-1.14-0.361-1.572-1.319-1.273-2.262C4.581,27.54,5.5,27.103,6.542,27.433z M5.722,30.146c0.746,0.237,1.445-0.015,1.637-0.62
					c0.188-0.591-0.229-1.211-0.995-1.454c-0.578-0.183-1.401-0.126-1.633,0.606C4.5,29.411,5.075,29.942,5.722,30.146z"/>
				<path fill="#010101" d="M6.204,26.216c-0.33-0.165-0.604-0.293-0.878-0.406l0.258-0.515l0.544,0.231l0.007-0.013
					c-0.226-0.311-0.336-0.829-0.071-1.357c0.22-0.442,0.828-0.997,1.925-0.448l1.907,0.954l-0.29,0.581l-1.843-0.921
					c-0.516-0.258-1.039-0.281-1.313,0.268c-0.191,0.383-0.07,0.815,0.204,1.076c0.06,0.063,0.152,0.125,0.251,0.175l1.921,0.961
					l-0.291,0.581L6.204,26.216z"/>
				<path fill="#010101" d="M6.992,20.727l0.854,0.571l0.517-0.774l0.412,0.275l-0.518,0.773l1.604,1.072
					c0.369,0.247,0.648,0.282,0.849-0.02c0.096-0.141,0.147-0.257,0.174-0.337l0.421,0.246c-0.026,0.133-0.107,0.32-0.246,0.529
					c-0.168,0.252-0.384,0.401-0.617,0.432c-0.263,0.046-0.563-0.075-0.914-0.309l-1.623-1.085l-0.308,0.461l-0.412-0.275
					l0.309-0.461L6.78,21.35L6.992,20.727z"/>
				<path fill="#010101" d="M12.968,20.516l-0.377-0.251l-0.015,0.017c0.085,0.334,0.027,0.79-0.302,1.179
					c-0.469,0.552-1.096,0.505-1.49,0.17c-0.66-0.559-0.524-1.452,0.374-2.501l-0.056-0.047c-0.226-0.191-0.684-0.473-1.156,0.085
					c-0.217,0.253-0.362,0.585-0.399,0.883l-0.424-0.165c0.045-0.35,0.227-0.758,0.519-1.102c0.707-0.834,1.448-0.555,1.995-0.092
					l1.021,0.865c0.237,0.201,0.478,0.385,0.691,0.509L12.968,20.516z M11.512,19.409c-0.47,0.532-0.895,1.228-0.364,1.676
					c0.322,0.272,0.655,0.188,0.871-0.066c0.3-0.355,0.266-0.772,0.102-1.046c-0.036-0.06-0.083-0.119-0.134-0.162L11.512,19.409z"
					/>
				<path fill="#010101" d="M11.331,15.673c0.158,0.154,0.165,0.395-0.021,0.574c-0.165,0.159-0.404,0.143-0.558-0.016
					c-0.159-0.165-0.16-0.411,0.011-0.574C10.938,15.487,11.172,15.508,11.331,15.673z M13.981,19.471l-2.476-2.574l0.468-0.451
					l2.477,2.575L13.981,19.471z"/>
				<path fill="#010101" d="M13.544,16.277c-0.224-0.293-0.414-0.53-0.611-0.751l0.458-0.351l0.39,0.448l0.012-0.009
					c-0.066-0.378,0.061-0.894,0.53-1.253c0.394-0.3,1.184-0.532,1.929,0.442l1.297,1.698l-0.516,0.395l-1.253-1.639
					c-0.351-0.458-0.813-0.709-1.3-0.337c-0.34,0.261-0.42,0.703-0.289,1.059c0.025,0.083,0.082,0.179,0.148,0.268l1.307,1.708
					l-0.518,0.396L13.544,16.277z"/>
				<path fill="#010101" d="M17.818,14.395c0.436,0.763,1.101,0.811,1.671,0.499c0.409-0.224,0.615-0.43,0.779-0.637l0.32,0.354
					c-0.15,0.201-0.438,0.493-0.936,0.766c-0.964,0.529-1.889,0.21-2.407-0.735c-0.518-0.945-0.37-1.995,0.544-2.496
					c1.022-0.561,1.788,0.19,2.104,0.766c0.063,0.116,0.101,0.215,0.126,0.276L17.818,14.395z M19.265,13.071
					c-0.192-0.366-0.657-0.844-1.298-0.493c-0.576,0.316-0.538,0.985-0.366,1.405L19.265,13.071z"/>
				<path fill="#010101" d="M20.528,12.13c-0.157-0.391-0.301-0.724-0.445-1.023l0.527-0.213l0.283,0.643l0.027-0.011
					c-0.028-0.506,0.221-0.934,0.624-1.097c0.069-0.028,0.12-0.04,0.181-0.049l0.229,0.569c-0.066,0.011-0.131,0.029-0.213,0.063
					c-0.424,0.172-0.597,0.615-0.496,1.101c0.021,0.088,0.045,0.189,0.086,0.292l0.715,1.768l-0.596,0.241L20.528,12.13z"/>
				<path fill="#010101" d="M24.481,8.18l1.203,4.829l-0.622,0.156l-1.204-4.829L24.481,8.18z"/>
				<path fill="#010101" d="M26.067,7.858c0.383-0.104,0.839-0.203,1.345-0.262c0.917-0.107,1.594,0.028,2.074,0.381
					c0.485,0.351,0.81,0.893,0.903,1.691c0.094,0.807-0.077,1.496-0.485,2.004c-0.408,0.516-1.142,0.854-2.102,0.967
					c-0.454,0.054-0.838,0.076-1.164,0.078L26.067,7.858z M27.218,12.152c0.164,0.01,0.399-0.01,0.648-0.039
					c1.363-0.16,2.014-1.009,1.857-2.344c-0.128-1.166-0.875-1.829-2.224-1.67c-0.33,0.039-0.576,0.097-0.74,0.153L27.218,12.152z"
					/>
			</g>
			<g>
				
					<use xlink:href="#broken"  width="22.491" height="22.491" id="XMLID_662_" x="-11.245" y="-11.245" transform="matrix(1.9206 0 0 -1.9206 31.3032 36.672)" overflow="visible"/>
			</g>
			<g>
				<path fill="#FFFFFF" d="M21.378,33.894c-0.06-1.128-0.132-2.482-0.12-3.49h-0.036c-0.275,0.947-0.611,1.955-1.019,3.07
					l-1.428,3.922h-0.791l-1.308-3.85c-0.384-1.14-0.708-2.184-0.936-3.143h-0.024c-0.023,1.008-0.084,2.362-0.155,3.574
					l-0.216,3.466H14.35l0.564-8.084h1.331l1.379,3.91c0.336,0.995,0.611,1.883,0.815,2.723h0.036
					c0.204-0.815,0.492-1.703,0.852-2.723l1.439-3.91h1.331l0.504,8.084h-1.02L21.378,33.894z"/>
				<path fill="#FFFFFF" d="M24.646,31.639l1.271,3.43c0.132,0.384,0.276,0.84,0.372,1.188h0.024
					c0.107-0.348,0.228-0.791,0.371-1.211l1.151-3.406h1.116l-1.584,4.138c-0.755,1.991-1.271,3.011-1.99,3.634
					c-0.516,0.456-1.031,0.636-1.296,0.684l-0.264-0.888c0.264-0.084,0.611-0.252,0.924-0.516c0.288-0.228,0.647-0.636,0.888-1.175
					c0.048-0.108,0.084-0.192,0.084-0.252c0-0.061-0.024-0.145-0.072-0.276l-2.146-5.349H24.646z"/>
				<path fill="#FFFFFF" d="M29.806,36.172c0.468,0.288,1.151,0.528,1.871,0.528c1.067,0,1.692-0.564,1.692-1.38
					c0-0.756-0.433-1.188-1.524-1.606c-1.319-0.468-2.135-1.151-2.135-2.291c0-1.26,1.043-2.195,2.614-2.195
					c0.828,0,1.427,0.192,1.787,0.396l-0.287,0.852c-0.264-0.145-0.805-0.384-1.536-0.384c-1.104,0-1.522,0.659-1.522,1.211
					c0,0.756,0.491,1.127,1.606,1.56c1.368,0.527,2.063,1.187,2.063,2.374c0,1.248-0.924,2.327-2.831,2.327
					c-0.779,0-1.631-0.229-2.063-0.516L29.806,36.172z"/>
				<path fill="#FFFFFF" d="M42.535,38.631c-1.092-0.288-2.16-0.611-3.096-0.936c-0.168-0.061-0.336-0.12-0.49-0.12
					c-1.92-0.072-3.563-1.487-3.563-4.09c0-2.591,1.582-4.258,3.766-4.258c2.195,0,3.621,1.703,3.621,4.09
					c0,2.075-0.959,3.406-2.303,3.874v0.048c0.805,0.204,1.68,0.396,2.363,0.516L42.535,38.631z M41.67,33.365
					c0-1.619-0.838-3.286-2.553-3.286c-1.764,0-2.627,1.632-2.615,3.383c-0.012,1.715,0.936,3.262,2.566,3.262
					C40.736,36.724,41.67,35.213,41.67,33.365z"/>
				<path fill="#FFFFFF" d="M44.133,29.359h1.045v7.208h3.453v0.876h-4.498V29.359z"/>
			</g>
			<g>
				<path fill="#FFFFFF" d="M18.31,42.424c0.362-0.06,0.836-0.111,1.439-0.111c0.741,0,1.285,0.172,1.63,0.482
					c0.318,0.276,0.509,0.698,0.509,1.216c0,0.525-0.155,0.939-0.448,1.241c-0.397,0.423-1.044,0.638-1.776,0.638
					c-0.225,0-0.431-0.008-0.604-0.052v2.328h-0.75V42.424z M19.06,45.227c0.164,0.043,0.371,0.06,0.621,0.06
					c0.905,0,1.457-0.439,1.457-1.241c0-0.768-0.544-1.138-1.371-1.138c-0.328,0-0.578,0.025-0.707,0.061V45.227z"/>
				<path fill="#FFFFFF" d="M22.732,45.295c0-0.491-0.008-0.914-0.034-1.302h0.664l0.025,0.819h0.035
					c0.189-0.561,0.646-0.914,1.155-0.914c0.086,0,0.146,0.009,0.215,0.026v0.715c-0.077-0.017-0.155-0.025-0.258-0.025
					c-0.535,0-0.914,0.405-1.018,0.974c-0.018,0.104-0.035,0.225-0.035,0.354v2.225h-0.75V45.295z"/>
				<path fill="#FFFFFF" d="M26.431,42.821c0.008,0.258-0.182,0.465-0.483,0.465c-0.267,0-0.457-0.207-0.457-0.465
					c0-0.268,0.198-0.475,0.475-0.475C26.25,42.347,26.431,42.554,26.431,42.821z M25.585,48.166v-4.173h0.759v4.173H25.585z"/>
				<path fill="#FFFFFF" d="M27.602,45.123c0-0.432-0.008-0.785-0.034-1.13h0.664l0.034,0.673h0.026
					c0.232-0.396,0.62-0.768,1.311-0.768c0.568,0,1,0.345,1.181,0.836h0.018c0.129-0.232,0.293-0.413,0.465-0.543
					c0.25-0.189,0.526-0.293,0.923-0.293c0.552,0,1.372,0.362,1.372,1.811v2.457h-0.743v-2.362c0-0.802-0.293-1.284-0.904-1.284
					c-0.432,0-0.768,0.318-0.897,0.689c-0.034,0.104-0.06,0.241-0.06,0.379v2.578h-0.742v-2.5c0-0.664-0.293-1.146-0.87-1.146
					c-0.475,0-0.819,0.379-0.94,0.759c-0.043,0.111-0.06,0.241-0.06,0.37v2.518h-0.742V45.123z"/>
				<path fill="#FFFFFF" d="M37.102,48.166l-0.059-0.526h-0.027c-0.232,0.328-0.68,0.621-1.275,0.621
					c-0.846,0-1.275-0.595-1.275-1.198c0-1.009,0.896-1.561,2.508-1.552v-0.086c0-0.345-0.094-0.966-0.947-0.966
					c-0.389,0-0.793,0.12-1.086,0.311l-0.174-0.5c0.346-0.225,0.846-0.371,1.371-0.371c1.275,0,1.586,0.871,1.586,1.707v1.561
					c0,0.362,0.018,0.716,0.07,1H37.102z M36.99,46.036c-0.828-0.017-1.768,0.13-1.768,0.94c0,0.491,0.328,0.724,0.717,0.724
					c0.543,0,0.887-0.345,1.008-0.698c0.025-0.077,0.043-0.164,0.043-0.241V46.036z"/>
				<path fill="#FFFFFF" d="M38.945,45.295c0-0.491-0.008-0.914-0.033-1.302h0.664l0.025,0.819h0.035
					c0.189-0.561,0.646-0.914,1.154-0.914c0.086,0,0.146,0.009,0.215,0.026v0.715c-0.076-0.017-0.154-0.025-0.258-0.025
					c-0.535,0-0.914,0.405-1.018,0.974c-0.018,0.104-0.033,0.225-0.033,0.354v2.225h-0.752V45.295z"/>
				<path fill="#FFFFFF" d="M42.256,43.993l0.914,2.466c0.096,0.276,0.199,0.604,0.268,0.854h0.018
					c0.078-0.25,0.164-0.569,0.268-0.871l0.826-2.448h0.803l-1.139,2.975c-0.543,1.431-0.914,2.164-1.432,2.612
					c-0.369,0.327-0.74,0.457-0.93,0.491l-0.189-0.638c0.189-0.061,0.439-0.182,0.664-0.371c0.205-0.164,0.465-0.457,0.637-0.845
					c0.035-0.077,0.061-0.138,0.061-0.181c0-0.044-0.018-0.104-0.051-0.198l-1.545-3.846H42.256z"/>
			</g>
		</g>
		
			<use xlink:href="#ok_2"  width="23.404" height="23.404" id="XMLID_661_" x="-11.702" y="-11.702" transform="matrix(1 0 0 -1 48.9186 16.1983)" overflow="visible"/>
	</g>
</g>
<g>
</g>
<g>
</g>
<g>
</g>
<g>
</g>
<g>
</g>
<g>
</g>
<g>
</g>
<g>
</g>
<g>
</g>
<g>
</g>
<g>
</g>
<g>
</g>
<g>
</g>
</svg>
