<?xml version="1.0" encoding="utf-8"?>
<!-- Generator: Adobe Illustrator 17.0.0, SVG Export Plug-In . SVG Version: 6.00 Build 0)  -->
<!DOCTYPE svg PUBLIC "-//W3C//DTD SVG 1.1//EN" "http://www.w3.org/Graphics/SVG/1.1/DTD/svg11.dtd">
<svg version="1.1" id="Layer_1" xmlns="http://www.w3.org/2000/svg" xmlns:xlink="http://www.w3.org/1999/xlink" x="0px" y="0px"
	 width="65px" height="65px" viewBox="0 0 65 65" enable-background="new 0 0 65 65" xml:space="preserve">
<symbol  id="broken" viewBox="-11.245 -11.245 22.491 22.491">
	<path fill="#625FAA" d="M11.245,0C11.245-6.21,6.211-11.245,0-11.245S-11.245-6.21-11.245,0S-6.211,11.246,0,11.246
		S11.245,6.211,11.245,0z"/>
</symbol>
<symbol  id="warning" viewBox="-11.547 -11.547 23.094 23.094">
	<path fill="#C7BC32" stroke="#FFFFFF" stroke-miterlimit="10" d="M11.047,0c0-6.101-4.946-11.047-11.047-11.047
		S-11.047-6.101-11.047,0S-6.101,11.047,0,11.047S11.047,6.101,11.047,0z"/>
	<g>
		
			<line fill="none" stroke="#FFFFFF" stroke-width="2" stroke-linecap="round" stroke-linejoin="round" stroke-miterlimit="10" x1="0" y1="7.266" x2="-0.085" y2="-1.641"/>
		<path fill="none" stroke="#FFFFFF" stroke-width="2" stroke-linecap="round" stroke-linejoin="round" stroke-miterlimit="10" d="
			M0.562-6.032c0-0.357-0.29-0.647-0.647-0.647s-0.647,0.29-0.647,0.647s0.29,0.647,0.647,0.647S0.562-5.674,0.562-6.032z"/>
	</g>
</symbol>
<g id="XMLID_269_">
	<g>
		<g id="XMLID_749_">
			<g>
				<g>
					<path fill="none" d="M50.488,51.516c-8.456,10.768-24.096,12.648-34.863,4.192C4.857,47.252,2.976,31.612,11.433,20.844
						s24.096-12.648,34.863-4.192C57.064,25.109,58.944,40.749,50.488,51.516z"/>
					<path fill="#010101" d="M6.544,30.522c0.081,0.251,0.128,0.736,0.038,1.335c-0.209,1.388-1.243,2.3-2.858,2.057
						c-1.54-0.232-2.427-1.433-2.198-2.96c0.092-0.614,0.282-0.98,0.396-1.135l0.495,0.231c-0.152,0.224-0.292,0.554-0.354,0.963
						c-0.174,1.154,0.449,2.032,1.741,2.227c1.205,0.181,2.084-0.396,2.265-1.594c0.058-0.387,0.037-0.793-0.049-1.067L6.544,30.522
						z"/>
					<path fill="#010101" d="M6.093,26.433c1.261,0.399,1.534,1.446,1.272,2.27c-0.291,0.922-1.192,1.418-2.27,1.078
						c-1.14-0.361-1.572-1.319-1.273-2.262C4.132,26.54,5.052,26.103,6.093,26.433z M5.274,29.146
						c0.746,0.237,1.445-0.015,1.637-0.62c0.188-0.591-0.229-1.211-0.995-1.454c-0.578-0.183-1.401-0.126-1.633,0.606
						C4.051,28.411,4.626,28.942,5.274,29.146z"/>
					<path fill="#010101" d="M5.755,25.216c-0.33-0.165-0.604-0.293-0.878-0.406l0.258-0.515l0.544,0.231l0.007-0.013
						c-0.226-0.311-0.336-0.829-0.071-1.357c0.22-0.442,0.828-0.997,1.925-0.448l1.907,0.954l-0.29,0.581l-1.843-0.921
						C6.798,23.063,6.275,23.041,6,23.589c-0.191,0.383-0.07,0.815,0.204,1.076c0.06,0.063,0.152,0.125,0.251,0.175l1.921,0.961
						l-0.291,0.581L5.755,25.216z"/>
					<path fill="#010101" d="M6.543,19.727l0.854,0.571l0.517-0.774l0.412,0.275l-0.518,0.773l1.604,1.072
						c0.369,0.247,0.648,0.282,0.849-0.02c0.096-0.141,0.147-0.257,0.174-0.337l0.421,0.246c-0.026,0.133-0.107,0.32-0.246,0.529
						c-0.168,0.252-0.384,0.401-0.617,0.432c-0.263,0.046-0.563-0.075-0.914-0.309l-1.623-1.085l-0.308,0.461l-0.412-0.275
						l0.309-0.461L6.332,20.35L6.543,19.727z"/>
					<path fill="#010101" d="M12.52,19.516l-0.377-0.251l-0.015,0.017c0.085,0.334,0.027,0.79-0.302,1.179
						c-0.469,0.552-1.096,0.505-1.49,0.17c-0.66-0.559-0.524-1.452,0.374-2.501l-0.056-0.047c-0.226-0.191-0.684-0.473-1.156,0.085
						c-0.217,0.253-0.362,0.585-0.399,0.883l-0.424-0.165c0.045-0.35,0.227-0.758,0.519-1.102c0.707-0.834,1.448-0.555,1.995-0.092
						l1.021,0.865c0.237,0.201,0.478,0.385,0.691,0.509L12.52,19.516z M11.064,18.409c-0.47,0.532-0.895,1.228-0.364,1.676
						c0.322,0.272,0.655,0.188,0.871-0.066c0.3-0.355,0.266-0.772,0.102-1.046c-0.036-0.06-0.083-0.119-0.134-0.162L11.064,18.409z"
						/>
					<path fill="#010101" d="M10.882,14.673c0.158,0.154,0.165,0.395-0.021,0.574c-0.165,0.159-0.404,0.143-0.558-0.016
						c-0.159-0.165-0.16-0.411,0.011-0.574C10.49,14.487,10.724,14.508,10.882,14.673z M13.533,18.471l-2.476-2.574l0.468-0.451
						l2.477,2.575L13.533,18.471z"/>
					<path fill="#010101" d="M13.096,15.277c-0.224-0.293-0.414-0.53-0.611-0.751l0.458-0.351l0.39,0.448l0.012-0.009
						c-0.066-0.378,0.061-0.894,0.53-1.253c0.394-0.3,1.184-0.532,1.929,0.442l1.297,1.698l-0.516,0.395l-1.253-1.639
						c-0.351-0.458-0.813-0.709-1.3-0.337c-0.34,0.261-0.42,0.703-0.289,1.059c0.025,0.083,0.082,0.179,0.148,0.268l1.307,1.708
						l-0.518,0.396L13.096,15.277z"/>
					<path fill="#010101" d="M17.37,13.395c0.436,0.763,1.101,0.811,1.671,0.499c0.409-0.224,0.615-0.43,0.779-0.637l0.32,0.354
						c-0.15,0.201-0.438,0.493-0.936,0.766c-0.964,0.529-1.889,0.21-2.407-0.735c-0.518-0.945-0.37-1.995,0.544-2.496
						c1.022-0.561,1.788,0.19,2.104,0.766c0.063,0.116,0.101,0.215,0.126,0.276L17.37,13.395z M18.817,12.071
						c-0.192-0.366-0.657-0.844-1.298-0.493c-0.576,0.316-0.538,0.985-0.366,1.405L18.817,12.071z"/>
					<path fill="#010101" d="M20.08,11.13c-0.157-0.391-0.301-0.724-0.445-1.023l0.527-0.213l0.283,0.643l0.027-0.011
						c-0.028-0.506,0.221-0.934,0.624-1.097c0.069-0.028,0.12-0.04,0.181-0.049l0.229,0.569c-0.066,0.011-0.131,0.029-0.213,0.063
						c-0.424,0.172-0.597,0.615-0.496,1.101c0.021,0.088,0.045,0.189,0.086,0.292l0.715,1.768l-0.596,0.241L20.08,11.13z"/>
					<path fill="#010101" d="M24.033,7.18l1.203,4.829l-0.622,0.156L23.41,7.335L24.033,7.18z"/>
					<path fill="#010101" d="M25.619,6.858c0.383-0.104,0.839-0.203,1.345-0.262c0.917-0.107,1.594,0.028,2.074,0.381
						c0.485,0.351,0.81,0.893,0.903,1.691c0.094,0.807-0.077,1.496-0.485,2.004c-0.408,0.516-1.142,0.854-2.102,0.967
						c-0.454,0.054-0.838,0.076-1.164,0.078L25.619,6.858z M26.77,11.152c0.164,0.01,0.399-0.01,0.648-0.039
						c1.363-0.16,2.014-1.009,1.857-2.344c-0.128-1.166-0.875-1.829-2.224-1.67c-0.33,0.039-0.576,0.097-0.74,0.153L26.77,11.152z"
						/>
				</g>
				<g>
					
						<use xlink:href="#broken"  width="22.491" height="22.491" id="XMLID_750_" x="-11.245" y="-11.245" transform="matrix(1.9206 0 0 -1.9206 30.855 35.672)" overflow="visible"/>
				</g>
				<g>
					<path fill="#FFFFFF" d="M20.962,34.644c-0.06-1.128-0.132-2.483-0.12-3.49h-0.036c-0.275,0.947-0.611,1.955-1.019,3.07
						l-1.428,3.922h-0.791l-1.308-3.851c-0.384-1.139-0.708-2.182-0.936-3.142h-0.024c-0.023,1.007-0.084,2.362-0.155,3.573
						l-0.216,3.467h-0.996l0.564-8.083h1.331l1.379,3.91c0.336,0.995,0.611,1.883,0.815,2.723h0.036
						c0.204-0.815,0.492-1.703,0.852-2.723l1.439-3.91h1.331l0.504,8.083h-1.02L20.962,34.644z"/>
					<path fill="#FFFFFF" d="M24.23,32.389l1.271,3.43c0.132,0.384,0.276,0.84,0.372,1.188h0.024
						c0.107-0.348,0.228-0.792,0.371-1.211l1.151-3.406h1.116l-1.584,4.138c-0.755,1.99-1.271,3.01-1.99,3.634
						c-0.516,0.456-1.031,0.636-1.296,0.684l-0.264-0.888c0.264-0.084,0.611-0.252,0.924-0.516c0.288-0.228,0.647-0.636,0.888-1.176
						c0.048-0.107,0.084-0.191,0.084-0.251c0-0.061-0.024-0.145-0.072-0.276l-2.146-5.349H24.23z"/>
					<path fill="#FFFFFF" d="M29.39,36.922c0.468,0.288,1.151,0.527,1.871,0.527c1.067,0,1.691-0.563,1.691-1.379
						c0-0.756-0.433-1.188-1.523-1.607c-1.319-0.468-2.135-1.151-2.135-2.29c0-1.259,1.043-2.195,2.614-2.195
						c0.827,0,1.427,0.192,1.787,0.396l-0.287,0.852c-0.264-0.144-0.804-0.384-1.536-0.384c-1.104,0-1.522,0.66-1.522,1.211
						c0,0.755,0.491,1.127,1.606,1.559c1.368,0.528,2.063,1.188,2.063,2.375c0,1.247-0.924,2.327-2.831,2.327
						c-0.779,0-1.631-0.229-2.063-0.517L29.39,36.922z"/>
					<path fill="#FFFFFF" d="M42.119,39.381c-1.092-0.288-2.16-0.612-3.096-0.936c-0.168-0.061-0.336-0.12-0.49-0.12
						c-1.92-0.072-3.563-1.487-3.563-4.09c0-2.59,1.582-4.257,3.766-4.257c2.195,0,3.621,1.703,3.621,4.089
						c0,2.075-0.959,3.406-2.303,3.874v0.048c0.805,0.204,1.68,0.396,2.363,0.516L42.119,39.381z M41.254,34.115
						c0-1.619-0.838-3.286-2.553-3.286c-1.764,0-2.627,1.631-2.615,3.381c-0.012,1.716,0.936,3.263,2.566,3.263
						C40.32,37.474,41.254,35.962,41.254,34.115z"/>
					<path fill="#FFFFFF" d="M43.717,30.11h1.045v7.208h3.453v0.876h-4.498V30.11z"/>
				</g>
				<g>
					<path fill="#FFFFFF" d="M18.705,41.894c0.379-0.077,0.923-0.12,1.439-0.12c0.802,0,1.319,0.146,1.682,0.474
						c0.293,0.259,0.457,0.655,0.457,1.104c0,0.768-0.483,1.276-1.096,1.483v0.025c0.449,0.155,0.716,0.569,0.854,1.173
						c0.19,0.811,0.328,1.37,0.448,1.595h-0.775c-0.095-0.164-0.225-0.664-0.388-1.388c-0.173-0.802-0.483-1.104-1.164-1.13h-0.707
						v2.518h-0.75V41.894z M19.455,44.541h0.768c0.802,0,1.311-0.44,1.311-1.104c0-0.751-0.544-1.078-1.337-1.087
						c-0.362,0-0.62,0.035-0.741,0.069V44.541z"/>
					<path fill="#FFFFFF" d="M23.773,45.679c0.018,1.025,0.673,1.448,1.432,1.448c0.543,0,0.87-0.095,1.154-0.216l0.13,0.543
						c-0.268,0.121-0.725,0.259-1.388,0.259c-1.285,0-2.053-0.845-2.053-2.104s0.742-2.25,1.957-2.25
						c1.362,0,1.725,1.198,1.725,1.966c0,0.155-0.018,0.275-0.025,0.354H23.773z M25.998,45.136
						c0.009-0.483-0.198-1.233-1.052-1.233c-0.768,0-1.104,0.707-1.164,1.233H25.998z"/>
					<path fill="#FFFFFF" d="M27.668,44.816c0-0.534-0.017-0.966-0.034-1.362h0.682l0.034,0.716h0.018
						c0.31-0.509,0.802-0.811,1.482-0.811c1.009,0,1.768,0.854,1.768,2.121c0,1.5-0.914,2.241-1.896,2.241
						c-0.552,0-1.035-0.241-1.285-0.655h-0.017v2.268h-0.751V44.816z M28.419,45.929c0,0.112,0.017,0.216,0.034,0.311
						c0.138,0.525,0.595,0.888,1.138,0.888c0.802,0,1.268-0.655,1.268-1.612c0-0.836-0.439-1.552-1.241-1.552
						c-0.518,0-1,0.371-1.147,0.939c-0.025,0.095-0.051,0.207-0.051,0.311V45.929z"/>
					<path fill="#FFFFFF" d="M32.574,41.506h0.758v6.121h-0.758V41.506z"/>
					<path fill="#FFFFFF" d="M35.453,42.282c0.008,0.258-0.182,0.465-0.482,0.465c-0.268,0-0.457-0.207-0.457-0.465
						c0-0.268,0.197-0.475,0.475-0.475C35.271,41.808,35.453,42.015,35.453,42.282z M34.607,47.627v-4.173h0.76v4.173H34.607z"/>
					<path fill="#FFFFFF" d="M39.6,47.472c-0.199,0.104-0.639,0.241-1.199,0.241c-1.258,0-2.078-0.854-2.078-2.129
						c0-1.285,0.881-2.216,2.242-2.216c0.449,0,0.846,0.112,1.053,0.216l-0.174,0.586c-0.18-0.104-0.465-0.198-0.879-0.198
						c-0.957,0-1.475,0.707-1.475,1.577c0,0.966,0.621,1.561,1.449,1.561c0.432,0,0.715-0.111,0.932-0.207L39.6,47.472z"/>
					<path fill="#FFFFFF" d="M42.797,47.627l-0.059-0.526h-0.027c-0.232,0.328-0.68,0.621-1.275,0.621
						c-0.846,0-1.275-0.595-1.275-1.198c0-1.009,0.896-1.561,2.508-1.552v-0.086c0-0.345-0.094-0.966-0.947-0.966
						c-0.389,0-0.793,0.12-1.086,0.311l-0.174-0.5c0.346-0.225,0.846-0.371,1.371-0.371c1.275,0,1.586,0.871,1.586,1.707v1.561
						c0,0.362,0.018,0.716,0.07,1H42.797z M42.686,45.497c-0.828-0.017-1.768,0.13-1.768,0.94c0,0.491,0.328,0.724,0.717,0.724
						c0.543,0,0.887-0.345,1.008-0.698c0.025-0.077,0.043-0.164,0.043-0.241V45.497z"/>
				</g>
			</g>
		</g>
		
			<use xlink:href="#warning"  width="23.094" height="23.094" id="XMLID_748_" x="-11.547" y="-11.547" transform="matrix(1 0 0 -1 52.4526 16.8519)" overflow="visible"/>
	</g>
</g>
<g>
</g>
<g>
</g>
<g>
</g>
<g>
</g>
<g>
</g>
<g>
</g>
<g>
</g>
<g>
</g>
<g>
</g>
<g>
</g>
<g>
</g>
<g>
</g>
<g>
</g>
</svg>
