<?xml version="1.0" encoding="utf-8"?>
<!-- Generator: Adobe Illustrator 17.0.0, SVG Export Plug-In . SVG Version: 6.00 Build 0)  -->
<!DOCTYPE svg PUBLIC "-//W3C//DTD SVG 1.1//EN" "http://www.w3.org/Graphics/SVG/1.1/DTD/svg11.dtd">
<svg version="1.1" id="Layer_1" xmlns="http://www.w3.org/2000/svg" xmlns:xlink="http://www.w3.org/1999/xlink" x="0px" y="0px"
	 width="50px" height="50px" viewBox="0 0 50 50" enable-background="new 0 0 50 50" xml:space="preserve">
<symbol  id="ok_2" viewBox="-11.702 -11.702 23.404 23.404">
	<path fill="#48BD9C" stroke="#FFFFFF" stroke-miterlimit="10" d="M11.202,0c0-6.187-5.015-11.202-11.202-11.202
		S-11.202-6.187-11.202,0S-6.187,11.202,0,11.202S11.202,6.187,11.202,0z"/>
	
		<polyline fill="none" stroke="#FFFFFF" stroke-width="2" stroke-linecap="round" stroke-linejoin="round" stroke-miterlimit="10" points="
		-5.408,0 0,-6.215 5.235,5.547 	"/>
</symbol>
<g>
	<g>
		<g id="Mongo_x5F_green_20_">
			<g id="MySQL_x5F_cont_21_">
				<g>
					<path fill="none" d="M40.507,40.578c-6.618,8.426-18.857,9.898-27.283,3.28c-8.426-6.618-9.898-18.857-3.28-27.283
						s18.857-9.898,27.283-3.28C45.653,19.913,47.125,32.152,40.507,40.578z"/>
					<path fill="#010101" d="M6.107,24.146c0.063,0.196,0.101,0.576,0.03,1.044c-0.163,1.085-0.971,1.799-2.233,1.609
						c-1.204-0.18-1.898-1.119-1.72-2.313c0.073-0.479,0.22-0.768,0.309-0.888l0.387,0.18c-0.119,0.176-0.228,0.433-0.276,0.753
						c-0.134,0.902,0.352,1.589,1.363,1.74c0.942,0.141,1.63-0.31,1.769-1.247c0.047-0.303,0.029-0.62-0.037-0.835L6.107,24.146z"/>
					<path fill="#010101" d="M5.759,20.94c0.986,0.313,1.199,1.133,0.994,1.777c-0.229,0.723-0.934,1.111-1.778,0.844
						c-0.894-0.283-1.231-1.034-0.997-1.772C4.222,21.022,4.942,20.681,5.759,20.94z M5.114,23.065
						c0.584,0.186,1.132-0.011,1.283-0.484c0.146-0.464-0.179-0.949-0.78-1.14c-0.452-0.144-1.097-0.1-1.279,0.474
						C4.156,22.489,4.606,22.904,5.114,23.065z"/>
					<path fill="#010101" d="M5.481,20.021c-0.259-0.129-0.472-0.229-0.687-0.318l0.201-0.402l0.427,0.181l0.005-0.011
						c-0.176-0.243-0.263-0.648-0.057-1.062c0.173-0.347,0.647-0.781,1.507-0.352l1.493,0.746L8.145,19.26l-1.443-0.722
						c-0.402-0.202-0.813-0.22-1.028,0.209c-0.149,0.3-0.054,0.639,0.16,0.843c0.048,0.049,0.12,0.098,0.197,0.137l1.504,0.753
						l-0.228,0.454L5.481,20.021z"/>
					<path fill="#010101" d="M6.092,15.723l0.669,0.446l0.404-0.605l0.322,0.216l-0.405,0.605l1.256,0.839
						c0.288,0.193,0.507,0.221,0.664-0.016c0.073-0.11,0.114-0.201,0.136-0.265l0.33,0.193c-0.021,0.104-0.084,0.25-0.193,0.414
						c-0.132,0.197-0.301,0.313-0.483,0.338c-0.205,0.036-0.441-0.059-0.716-0.242l-1.27-0.849l-0.24,0.361l-0.323-0.216l0.242-0.36
						L5.926,16.21L6.092,15.723z"/>
					<path fill="#010101" d="M10.768,15.556l-0.295-0.197l-0.012,0.013c0.066,0.262,0.022,0.618-0.235,0.923
						c-0.365,0.434-0.858,0.396-1.166,0.135c-0.518-0.438-0.411-1.137,0.292-1.959l-0.044-0.037c-0.177-0.15-0.535-0.37-0.906,0.066
						C8.233,14.698,8.12,14.958,8.09,15.19l-0.331-0.129c0.034-0.273,0.177-0.594,0.405-0.862c0.553-0.654,1.133-0.436,1.563-0.072
						l0.798,0.677c0.187,0.157,0.375,0.302,0.543,0.398L10.768,15.556z M9.628,14.688c-0.367,0.417-0.699,0.962-0.284,1.314
						c0.251,0.212,0.512,0.146,0.681-0.054c0.235-0.277,0.209-0.604,0.08-0.819c-0.028-0.046-0.064-0.093-0.105-0.127L9.628,14.688z
						"/>
					<path fill="#010101" d="M9.479,11.765c0.124,0.12,0.129,0.309-0.017,0.448c-0.128,0.125-0.316,0.113-0.437-0.011
						c-0.124-0.13-0.125-0.322,0.008-0.449C9.172,11.62,9.354,11.635,9.479,11.765z M11.558,14.735l-1.94-2.013l0.366-0.353
						l1.94,2.013L11.558,14.735z"/>
					<path fill="#010101" d="M11.186,12.262c-0.176-0.229-0.325-0.413-0.479-0.586l0.356-0.274l0.305,0.348l0.01-0.007
						c-0.053-0.295,0.045-0.698,0.411-0.98c0.307-0.236,0.923-0.421,1.509,0.339l1.02,1.322l-0.402,0.311l-0.985-1.276
						c-0.273-0.357-0.637-0.552-1.017-0.26c-0.265,0.205-0.325,0.552-0.222,0.828c0.02,0.064,0.064,0.14,0.116,0.209l1.027,1.331
						l-0.403,0.311L11.186,12.262z"/>
					<path fill="#010101" d="M14.527,10.771c0.343,0.597,0.864,0.633,1.311,0.388c0.318-0.177,0.48-0.338,0.608-0.501l0.252,0.276
						c-0.118,0.158-0.342,0.388-0.732,0.603c-0.754,0.416-1.479,0.168-1.887-0.571c-0.407-0.739-0.293-1.563,0.422-1.956
						c0.8-0.441,1.4,0.146,1.649,0.596c0.05,0.091,0.078,0.168,0.099,0.217L14.527,10.771z M15.658,9.731
						c-0.151-0.287-0.517-0.66-1.018-0.384c-0.451,0.248-0.419,0.772-0.285,1.101L15.658,9.731z"/>
					<path fill="#010101" d="M16.646,8.994c-0.124-0.306-0.236-0.565-0.351-0.8l0.413-0.168l0.223,0.502l0.021-0.008
						c-0.023-0.396,0.172-0.731,0.487-0.86c0.054-0.021,0.094-0.031,0.141-0.038l0.181,0.444c-0.054,0.01-0.103,0.023-0.167,0.05
						c-0.332,0.135-0.466,0.482-0.386,0.862c0.016,0.068,0.034,0.148,0.067,0.229l0.562,1.382l-0.466,0.189L16.646,8.994z"/>
					<path fill="#010101" d="M19.721,5.895l0.959,3.773l-0.487,0.124l-0.959-3.773L19.721,5.895z"/>
					<path fill="#010101" d="M20.933,5.646c0.299-0.083,0.655-0.161,1.051-0.21c0.716-0.087,1.246,0.017,1.622,0.29
						C23.989,6,24.243,6.423,24.319,7.048c0.078,0.63-0.055,1.169-0.373,1.568c-0.316,0.405-0.889,0.673-1.64,0.765
						c-0.354,0.044-0.655,0.063-0.91,0.065L20.933,5.646z M21.848,9.001c0.13,0.008,0.313-0.01,0.508-0.033
						c1.066-0.13,1.572-0.797,1.444-1.84c-0.105-0.911-0.691-1.427-1.746-1.299c-0.258,0.031-0.45,0.078-0.578,0.123L21.848,9.001z"
						/>
				</g>
				<g>
					<g id="XMLID_272_">
						<g>
							<g id="ok_25_">
								<g>
									<circle fill="#A35888" cx="25.143" cy="28.179" r="16.837"/>
								</g>
							</g>
						</g>
					</g>
				</g>
				<g>
					<path fill="#FFFFFF" d="M11.016,30.935L9.81,26.184h0.648l0.564,2.403c0.141,0.593,0.268,1.185,0.353,1.643h0.014
						c0.078-0.472,0.226-1.036,0.388-1.649l0.635-2.396h0.642l0.578,2.411c0.134,0.563,0.261,1.128,0.331,1.628h0.015
						c0.099-0.521,0.232-1.05,0.38-1.643l0.628-2.396h0.627l-1.346,4.751h-0.642l-0.6-2.475c-0.148-0.605-0.247-1.071-0.311-1.551
						H12.7c-0.085,0.473-0.19,0.938-0.366,1.551l-0.677,2.475H11.016z"/>
					<path fill="#FFFFFF" d="M19.032,29.2c0,1.263-0.874,1.813-1.699,1.813c-0.924,0-1.636-0.677-1.636-1.756
						c0-1.142,0.747-1.812,1.692-1.812C18.369,27.445,19.032,28.157,19.032,29.2z M16.325,29.236c0,0.747,0.43,1.311,1.036,1.311
						c0.592,0,1.036-0.557,1.036-1.325c0-0.578-0.289-1.312-1.022-1.312C16.643,27.91,16.325,28.587,16.325,29.236z"/>
					<path fill="#FFFFFF" d="M19.812,28.587c0-0.401-0.007-0.747-0.028-1.064h0.543l0.021,0.67h0.027
						c0.155-0.458,0.529-0.747,0.945-0.747c0.07,0,0.12,0.007,0.176,0.021v0.585c-0.063-0.015-0.127-0.021-0.211-0.021
						c-0.438,0-0.747,0.331-0.832,0.797c-0.015,0.084-0.028,0.184-0.028,0.289v1.818h-0.613V28.587z"/>
					<path fill="#FFFFFF" d="M24.99,25.93v4.124c0,0.303,0.008,0.648,0.028,0.881h-0.557l-0.028-0.592H24.42
						c-0.19,0.381-0.606,0.67-1.163,0.67c-0.825,0-1.46-0.698-1.46-1.734c-0.007-1.135,0.698-1.833,1.53-1.833
						c0.521,0,0.874,0.247,1.029,0.521h0.014V25.93H24.99z M24.37,28.911c0-0.077-0.007-0.183-0.028-0.261
						c-0.092-0.395-0.43-0.719-0.896-0.719c-0.641,0-1.021,0.564-1.021,1.318c0,0.69,0.338,1.262,1.008,1.262
						c0.416,0,0.797-0.274,0.909-0.74c0.021-0.084,0.028-0.169,0.028-0.268V28.911z"/>
					<path fill="#FFFFFF" d="M26.017,28.637c0-0.438-0.014-0.79-0.028-1.114h0.557l0.028,0.586h0.015
						c0.254-0.416,0.655-0.663,1.212-0.663c0.825,0,1.445,0.698,1.445,1.734c0,1.227-0.747,1.833-1.551,1.833
						c-0.451,0-0.846-0.197-1.051-0.536H26.63v1.854h-0.613V28.637z M26.63,29.546c0,0.092,0.014,0.177,0.028,0.254
						c0.112,0.43,0.486,0.727,0.931,0.727c0.655,0,1.036-0.536,1.036-1.318c0-0.685-0.359-1.27-1.016-1.27
						c-0.423,0-0.817,0.304-0.938,0.769c-0.021,0.078-0.042,0.169-0.042,0.254V29.546z"/>
					<path fill="#FFFFFF" d="M30.023,28.587c0-0.401-0.007-0.747-0.028-1.064h0.543l0.021,0.67h0.027
						c0.155-0.458,0.529-0.747,0.945-0.747c0.07,0,0.119,0.007,0.176,0.021v0.585c-0.063-0.015-0.127-0.021-0.211-0.021
						c-0.438,0-0.748,0.331-0.832,0.797c-0.015,0.084-0.028,0.184-0.028,0.289v1.818h-0.613V28.587z"/>
					<path fill="#FFFFFF" d="M32.602,29.342c0.014,0.839,0.55,1.185,1.17,1.185c0.444,0,0.712-0.078,0.944-0.177l0.106,0.444
						c-0.219,0.099-0.593,0.211-1.136,0.211c-1.05,0-1.678-0.69-1.678-1.72s0.606-1.84,1.601-1.84c1.114,0,1.41,0.979,1.41,1.607
						c0,0.127-0.015,0.226-0.021,0.289H32.602z M34.42,28.897c0.007-0.395-0.162-1.008-0.86-1.008c-0.627,0-0.902,0.578-0.951,1.008
						H34.42z"/>
					<path fill="#FFFFFF" d="M35.7,30.301c0.184,0.119,0.508,0.246,0.818,0.246c0.451,0,0.662-0.226,0.662-0.508
						c0-0.296-0.176-0.458-0.634-0.627c-0.613-0.219-0.902-0.557-0.902-0.966c0-0.55,0.443-1.001,1.177-1.001
						c0.346,0,0.648,0.099,0.839,0.212l-0.155,0.451c-0.134-0.085-0.38-0.198-0.697-0.198c-0.367,0-0.571,0.212-0.571,0.466
						c0,0.282,0.204,0.409,0.648,0.578c0.592,0.226,0.896,0.521,0.896,1.029c0,0.599-0.466,1.021-1.276,1.021
						c-0.373,0-0.719-0.091-0.958-0.232L35.7,30.301z"/>
					<path fill="#FFFFFF" d="M38.489,30.301c0.184,0.119,0.508,0.246,0.818,0.246c0.451,0,0.662-0.226,0.662-0.508
						c0-0.296-0.176-0.458-0.634-0.627c-0.613-0.219-0.902-0.557-0.902-0.966c0-0.55,0.443-1.001,1.177-1.001
						c0.346,0,0.648,0.099,0.839,0.212l-0.155,0.451c-0.134-0.085-0.38-0.198-0.697-0.198c-0.367,0-0.571,0.212-0.571,0.466
						c0,0.282,0.204,0.409,0.648,0.578c0.592,0.226,0.896,0.521,0.896,1.029c0,0.599-0.466,1.021-1.276,1.021
						c-0.373,0-0.719-0.091-0.958-0.232L38.489,30.301z"/>
				</g>
			</g>
			
				<use xlink:href="#ok_2"  width="23.404" height="23.404" id="XMLID_273_" x="-11.702" y="-11.702" transform="matrix(0.7826 0 0 -0.7826 38.9283 12.1573)" overflow="visible"/>
		</g>
	</g>
</g>
<g>
</g>
<g>
</g>
<g>
</g>
<g>
</g>
<g>
</g>
<g>
</g>
<g>
</g>
<g>
</g>
<g>
</g>
<g>
</g>
</svg>
